<?xml version="1.0" encoding="UTF-8" standalone="no"?>
<svg
   xmlns:dc="http://purl.org/dc/elements/1.1/"
   xmlns:cc="http://creativecommons.org/ns#"
   xmlns:rdf="http://www.w3.org/1999/02/22-rdf-syntax-ns#"
   xmlns:svg="http://www.w3.org/2000/svg"
   xmlns="http://www.w3.org/2000/svg"
   xmlns:sodipodi="http://sodipodi.sourceforge.net/DTD/sodipodi-0.dtd"
   xmlns:inkscape="http://www.inkscape.org/namespaces/inkscape"
   inkscape:version="1.0rc1 (09960d6, 2020-04-09)"
   height="144.0786"
   width="642.0307"
   sodipodi:docname="logo.svg"
   version="1.1"
   viewBox="0 0 642.03071 144.07859"
   data-name="Layer 1"
   id="Layer_1">
  <metadata
     id="metadata131">
    <rdf:RDF>
      <cc:Work
         rdf:about="">
        <dc:format>image/svg+xml</dc:format>
        <dc:type
           rdf:resource="http://purl.org/dc/dcmitype/StillImage" />
      </cc:Work>
    </rdf:RDF>
  </metadata>
  <defs
     id="defs129">
    <clipPath
       id="clipPath204"
       clipPathUnits="userSpaceOnUse">
      <rect
         y="233.79822"
         x="732.92566"
         height="153.36473"
         width="651.49664"
         id="rect206"
         style="opacity:0.45;fill:#00ff00" />
    </clipPath>
    <clipPath
       id="clipPath208"
       clipPathUnits="userSpaceOnUse">
      <rect
         y="233.79822"
         x="732.92566"
         height="153.36473"
         width="651.49664"
         id="rect210"
         style="opacity:0.45;fill:#00ff00" />
    </clipPath>
    <clipPath
       id="clipPath212"
       clipPathUnits="userSpaceOnUse">
      <rect
         y="233.79822"
         x="732.92566"
         height="153.36473"
         width="651.49664"
         id="rect214"
         style="opacity:0.45;fill:#00ff00" />
    </clipPath>
    <clipPath
       id="clipPath216"
       clipPathUnits="userSpaceOnUse">
      <rect
         y="233.79822"
         x="732.92566"
         height="153.36473"
         width="651.49664"
         id="rect218"
         style="opacity:0.45;fill:#00ff00" />
    </clipPath>
    <clipPath
       id="clipPath220"
       clipPathUnits="userSpaceOnUse">
      <rect
         y="233.79822"
         x="732.92566"
         height="153.36473"
         width="651.49664"
         id="rect222"
         style="opacity:0.45;fill:#00ff00" />
    </clipPath>
    <clipPath
       id="clipPath224"
       clipPathUnits="userSpaceOnUse">
      <rect
         y="233.79822"
         x="732.92566"
         height="153.36473"
         width="651.49664"
         id="rect226"
         style="opacity:0.45;fill:#00ff00" />
    </clipPath>
    <clipPath
       id="clipPath228"
       clipPathUnits="userSpaceOnUse">
      <rect
         y="233.79822"
         x="732.92566"
         height="153.36473"
         width="651.49664"
         id="rect230"
         style="opacity:0.45;fill:#00ff00" />
    </clipPath>
    <clipPath
       id="clipPath232"
       clipPathUnits="userSpaceOnUse">
      <rect
         y="233.79822"
         x="732.92566"
         height="153.36473"
         width="651.49664"
         id="rect234"
         style="opacity:0.45;fill:#00ff00" />
    </clipPath>
    <clipPath
       id="clipPath236"
       clipPathUnits="userSpaceOnUse">
      <rect
         y="233.79822"
         x="732.92566"
         height="153.36473"
         width="651.49664"
         id="rect238"
         style="opacity:0.45;fill:#00ff00" />
    </clipPath>
    <clipPath
       id="clipPath240"
       clipPathUnits="userSpaceOnUse">
      <rect
         y="233.79822"
         x="732.92566"
         height="153.36473"
         width="651.49664"
         id="rect242"
         style="opacity:0.45;fill:#00ff00" />
    </clipPath>
    <clipPath
       id="clipPath244"
       clipPathUnits="userSpaceOnUse">
      <rect
         y="233.79822"
         x="732.92566"
         height="153.36473"
         width="651.49664"
         id="rect246"
         style="opacity:0.45;fill:#00ff00" />
    </clipPath>
    <clipPath
       id="clipPath248"
       clipPathUnits="userSpaceOnUse">
      <rect
         y="233.79822"
         x="732.92566"
         height="153.36473"
         width="651.49664"
         id="rect250"
         style="opacity:0.45;fill:#00ff00" />
    </clipPath>
    <clipPath
       id="clipPath252"
       clipPathUnits="userSpaceOnUse">
      <rect
         y="233.79822"
         x="732.92566"
         height="153.36473"
         width="651.49664"
         id="rect254"
         style="opacity:0.45;fill:#00ff00" />
    </clipPath>
    <clipPath
       id="clipPath256"
       clipPathUnits="userSpaceOnUse">
      <rect
         y="233.79822"
         x="732.92566"
         height="153.36473"
         width="651.49664"
         id="rect258"
         style="opacity:0.45;fill:#00ff00" />
    </clipPath>
    <clipPath
       id="clipPath260"
       clipPathUnits="userSpaceOnUse">
      <rect
         y="233.79822"
         x="732.92566"
         height="153.36473"
         width="651.49664"
         id="rect262"
         style="opacity:0.45;fill:#00ff00" />
    </clipPath>
    <clipPath
       id="clipPath264"
       clipPathUnits="userSpaceOnUse">
      <rect
         y="233.79822"
         x="732.92566"
         height="153.36473"
         width="651.49664"
         id="rect266"
         style="opacity:0.45;fill:#00ff00" />
    </clipPath>
    <clipPath
       id="clipPath268"
       clipPathUnits="userSpaceOnUse">
      <rect
         y="233.79822"
         x="732.92566"
         height="153.36473"
         width="651.49664"
         id="rect270"
         style="opacity:0.45;fill:#00ff00" />
    </clipPath>
    <clipPath
       id="clipPath272"
       clipPathUnits="userSpaceOnUse">
      <rect
         y="233.79822"
         x="732.92566"
         height="153.36473"
         width="651.49664"
         id="rect274"
         style="opacity:0.45;fill:#00ff00" />
    </clipPath>
    <clipPath
       id="clipPath276"
       clipPathUnits="userSpaceOnUse">
      <rect
         y="233.79822"
         x="732.92566"
         height="153.36473"
         width="651.49664"
         id="rect278"
         style="opacity:0.45;fill:#00ff00" />
    </clipPath>
    <clipPath
       id="clipPath280"
       clipPathUnits="userSpaceOnUse">
      <rect
         y="233.79822"
         x="732.92566"
         height="153.36473"
         width="651.49664"
         id="rect282"
         style="opacity:0.45;fill:#00ff00" />
    </clipPath>
    <clipPath
       id="clipPath284"
       clipPathUnits="userSpaceOnUse">
      <rect
         y="233.79822"
         x="732.92566"
         height="153.36473"
         width="651.49664"
         id="rect286"
         style="opacity:0.45;fill:#00ff00" />
    </clipPath>
  </defs>
  <sodipodi:namedview
     inkscape:current-layer="g124"
     inkscape:window-maximized="0"
     inkscape:window-y="61"
     inkscape:window-x="1261"
     inkscape:cy="132.25533"
     inkscape:cx="404.54814"
     inkscape:zoom="0.67570613"
     showgrid="false"
     id="namedview127"
     inkscape:window-height="1030"
     inkscape:window-width="1352"
     inkscape:pageshadow="2"
     inkscape:pageopacity="0"
     guidetolerance="10"
     gridtolerance="10"
     objecttolerance="10"
     borderopacity="1"
     bordercolor="#666666"
     pagecolor="#ffffff" />
  <g
     transform="translate(-737.02997,-239.0777)"
     id="g124">
    <g
       id="logoMark">
      <polygon
         style="fill:#7f202e"
         points="84.549,124.603 81.383,123.452 76.489,124.891 73.899,122.876 67.854,122.876 67.566,118.846 62.096,116.543 60.03,117.428 66.186,158.314 98.505,158.314 93.966,125.026 90.594,124.027 89.731,122.3 "
         data-name="logoMark &lt;PathItem&gt;"
         id="logoMark_PathItem_" />
      <polygon
         style="fill:#7f202e"
         points="144.86,67.271 156.977,62.445 156.977,33.355 140.508,39.672 "
         data-name="logoMark &lt;PathItem&gt;"
         id="logoMark_PathItem_2" />
      <polygon
         style="fill:#7f202e"
         points="94.624,61.85 99.806,61.275 107.002,53.791 113.029,50.212 87.136,60.144 87.816,65.129 "
         data-name="logoMark &lt;PathItem&gt;"
         id="logoMark_PathItem_3" />
      <polygon
         style="fill:#7f202e"
         points="51.138,71.809 43.318,19.865 15,31.727 15,61.168 20.653,83.503 "
         data-name="logoMark &lt;PathItem&gt;"
         id="logoMark_PathItem_4" />
      <polygon
         style="fill:#7f202e"
         points="138.281,38.384 134.804,16.338 81.162,16.338 86.859,58.108 "
         data-name="logoMark &lt;PathItem&gt;"
         id="logoMark_PathItem_5" />
      <polygon
         style="fill:#7f202e"
         points="83.796,61.425 85.633,63.93 85.217,60.88 "
         data-name="logoMark &lt;PathItem&gt;"
         id="logoMark_PathItem_6" />
      <polygon
         style="fill:#7f202e"
         points="84.94,58.844 79.143,16.338 51.737,16.338 45.221,19.067 51.74,62.365 73.035,60.123 77.168,61.825 "
         data-name="logoMark &lt;PathItem&gt;"
         id="logoMark_PathItem_7" />
      <polygon
         style="fill:#7f202e"
         points="142.955,68.029 138.599,40.404 116.327,48.947 120.819,73.652 119.933,77.198 "
         data-name="logoMark &lt;PathItem&gt;"
         id="logoMark_PathItem_8" />
      <polygon
         style="fill:#7f202e"
         points="156.977,137.415 155.983,137.811 156.977,144.114 "
         data-name="logoMark &lt;PathItem&gt;"
         id="logoMark_PathItem_9" />
      <polygon
         style="fill:#7f202e"
         points="44.81,16.338 44.914,17.027 46.56,16.338 "
         data-name="logoMark &lt;PathItem&gt;"
         id="logoMark_PathItem_10" />
      <path
         inkscape:connector-curvature="0"
         style="fill:#f23634"
         d="m 154.0779,138.5693 -49.5816,19.7452 h 41.5592 a 10.8962,10.8962 0 0 0 10.0794,-6.7 z"
         data-name="logoMark &lt;PathItem&gt;"
         id="logoMark_PathItem_11" />
      <path
         inkscape:connector-curvature="0"
         style="fill:#f23634"
         d="m 43.01,17.8246 -0.2239,-1.487 H 25.9213 A 10.8976,10.8976 0 0 0 15,27.259 v 2.2991 z"
         data-name="logoMark &lt;PathItem&gt;"
         id="logoMark_PathItem_12" />
      <path
         inkscape:connector-curvature="0"
         style="fill:#f23634"
         d="M 140.19,37.6519 156.977,31.213 V 27.259 A 10.8976,10.8976 0 0 0 146.0557,16.3376 h -9.2267 z"
         data-name="logoMark &lt;PathItem&gt;"
         id="logoMark_PathItem_13" />
      <polygon
         style="fill:#7f202e"
         points="18.772,84.224 15,69.321 15,85.671 "
         data-name="logoMark &lt;PathItem&gt;"
         id="logoMark_PathItem_14" />
      <path
         inkscape:connector-curvature="0"
         style="fill:#7f202e"
         d="M 37.5228,158.3145 26.9135,116.3945 15,121.1384 v 26.2547 a 10.8975,10.8975 0 0 0 10.9213,10.9214 z"
         data-name="logoMark &lt;PathItem&gt;"
         id="logoMark_PathItem_15" />
      <polygon
         style="fill:#7f202e"
         points="155.663,135.786 156.977,135.263 156.977,64.598 145.179,69.296 "
         data-name="logoMark &lt;PathItem&gt;"
         id="logoMark_PathItem_16" />
      <polygon
         style="fill:#7f202e"
         points="120.531,84.303 119.38,95.817 113.623,103.014 109.881,103.878 105.563,109.347 104.699,113.664 102.972,113.664 98.366,126.33 96.07,125.65 100.451,157.773 153.759,136.544 143.274,70.055 119.829,79.392 "
         data-name="logoMark &lt;PathItem&gt;"
         id="logoMark_PathItem_17" />
      <polygon
         style="fill:#f23634"
         points="15,118.986 26.419,114.439 19.266,86.177 15,87.813 "
         data-name="logoMark &lt;PathItem&gt;"
         id="logoMark_PathItem_18" />
      <polygon
         style="fill:#7f202e"
         points="28.293,113.692 55.795,102.74 51.443,73.834 21.147,85.455 "
         data-name="logoMark &lt;PathItem&gt;"
         id="logoMark_PathItem_19" />
      <polygon
         style="fill:#7f202e"
         points="58.067,118.27 57.634,114.952 56.101,104.771 28.788,115.648 39.586,158.314 64.162,158.314 58.129,118.243 "
         data-name="logoMark &lt;PathItem&gt;"
         id="logoMark_PathItem_20" />
    </g>
    <g
       clip-path="url(#clipPath284)"
       data-name="type"
       id="type-2">
      <path
         inkscape:connector-curvature="0"
         style="fill:#f23634"
         d="m 940.7433,260.94 a 21.4047,21.4047 0 0 1 -6.1582,15.2115 c -4.0644,3.9414 -9.9765,6.0966 -16.9971,6.0966 -13.8564,0 -23.0947,-8.6215 -23.0947,-21.6162 0,-12.9326 9.2383,-21.5542 23.0332,-21.5542 14.1641,4e-4 23.2168,8.5605 23.2168,21.8623 z m -39.9062,-0.3081 c 0,9.792 6.6513,16.2583 16.7509,16.2583 10.0381,0 16.8125,-6.4663 16.8125,-16.0117 0,-10.0386 -6.59,-16.4434 -16.8125,-16.4434 -10.0996,4e-4 -16.7509,6.4672 -16.7509,16.1972 z"
         data-name="type &lt;CompoundPathItem&gt;"
         id="type_CompoundPathItem_36" />
      <path
         inkscape:connector-curvature="0"
         style="fill:#f23634"
         d="m 980.5851,281.2017 v -19.3374 h -25.126 v 19.3374 h -6.3437 V 240.125 h 6.3437 v 16.3813 h 25.126 V 240.125 h 6.3438 v 41.0767 z"
         data-name="type &lt;CompoundPathItem&gt;"
         id="type_CompoundPathItem_37" />
      <path
         inkscape:connector-curvature="0"
         style="fill:#f23634"
         d="M 997.8869,281.2017 V 240.125 h 6.3437 v 41.0767 z"
         data-name="type &lt;CompoundPathItem&gt;"
         id="type_CompoundPathItem_38" />
      <path
         inkscape:connector-curvature="0"
         style="fill:#f23634"
         d="m 1058.9162,260.94 a 21.4051,21.4051 0 0 1 -6.1582,15.2115 c -4.0645,3.9414 -9.9766,6.0966 -16.9971,6.0966 -13.8564,0 -23.0947,-8.6215 -23.0947,-21.6162 0,-12.9326 9.2383,-21.5542 23.0332,-21.5542 14.164,4e-4 23.2168,8.5605 23.2168,21.8623 z m -39.9063,-0.3081 c 0,9.792 6.6514,16.2583 16.751,16.2583 10.0381,0 16.8125,-6.4663 16.8125,-16.0117 0,-10.0386 -6.59,-16.4434 -16.8125,-16.4434 -10.0996,4e-4 -16.7509,6.4672 -16.7509,16.1972 z"
         data-name="type &lt;CompoundPathItem&gt;"
         id="type_CompoundPathItem_39" />
      <path
         inkscape:connector-curvature="0"
         style="fill:#7f202e"
         d="m 1127.1466,265.0049 c -2.0322,11.27 -9.36,17.2436 -21.0615,17.2436 -13.4873,0 -21.9863,-8.3139 -21.9863,-21.5547 0,-13.2408 8.5605,-21.6157 22.1094,-21.6157 6.59,0 12.0088,1.9707 15.7041,5.7271 2.5859,2.6479 4.0029,5.5425 4.8652,10.0386 h -6.4053 c -1.416,-6.7129 -6.5273,-10.4083 -14.2256,-10.4083 -9.4228,0 -15.7041,6.4668 -15.7041,16.2583 0,9.6075 6.4043,16.1968 15.7657,16.1968 4.9882,0 9.1757,-1.8476 11.8242,-5.1728 1.4775,-1.9092 2.0937,-3.51 2.71,-6.7129 z"
         data-name="type &lt;CompoundPathItem&gt;"
         id="type_CompoundPathItem_40" />
      <path
         inkscape:connector-curvature="0"
         style="fill:#7f202e"
         d="M 1134.4709,281.2017 V 240.125 h 6.3437 v 41.0767 z"
         data-name="type &lt;CompoundPathItem&gt;"
         id="type_CompoundPathItem_41" />
      <path
         inkscape:connector-curvature="0"
         style="fill:#7f202e"
         d="m 1162.5519,281.2017 v -35.35 h -15.7041 v -5.7267 h 37.875 v 5.7271 h -15.8271 v 35.35 z"
         data-name="type &lt;CompoundPathItem&gt;"
         id="type_CompoundPathItem_42" />
      <path
         inkscape:connector-curvature="0"
         style="fill:#7f202e"
         d="M 1190.7541,281.2017 V 240.125 h 6.3437 v 41.0767 z"
         data-name="type &lt;CompoundPathItem&gt;"
         id="type_CompoundPathItem_43" />
      <path
         inkscape:connector-curvature="0"
         style="fill:#7f202e"
         d="m 1204.1173,281.2017 v -5.6656 l 29.4991,-29.684 h -27.59 v -5.7271 h 35.7188 v 5.9121 l -28.9444,29.437 h 28.9444 v 5.7276 z"
         data-name="type &lt;CompoundPathItem&gt;"
         id="type_CompoundPathItem_44" />
      <path
         inkscape:connector-curvature="0"
         style="fill:#7f202e"
         d="M 1248.5793,281.2017 V 240.125 h 33.625 v 5.7271 h -27.2813 v 11.5166 h 25.6807 v 5.727 h -25.6807 v 12.3784 h 27.8359 v 5.7276 z"
         data-name="type &lt;CompoundPathItem&gt;"
         id="type_CompoundPathItem_45" />
      <path
         inkscape:connector-curvature="0"
         style="fill:#7f202e"
         d="m 1324.5714,281.2017 -27.3427,-33.4405 v 33.4405 h -6.3438 V 240.125 h 7.9444 l 27.0361,33.1323 V 240.125 h 6.3428 v 41.0767 z"
         data-name="type &lt;CompoundPathItem&gt;"
         id="type_CompoundPathItem_46" />
      <path
         inkscape:connector-curvature="0"
         style="fill:#7f202e"
         d="m 1370.2023,252.0723 c -0.1846,-2.5249 -0.8613,-3.88 -2.5244,-5.1734 -2.0938,-1.6626 -4.9883,-2.4634 -8.8067,-2.4634 -6.6513,0 -11.0234,2.587 -11.0234,6.4668 a 4.4745,4.4745 0 0 0 2.5859,4.003 c 1.417,0.8 2.6485,1.17 6.4668,1.8471 l 8.4366,1.4781 c 4.4345,0.8007 6.8359,1.6015 8.8691,3.08 a 9.5516,9.5516 0 0 1 3.8174,7.8828 11.9281,11.9281 0 0 1 -6.22,10.3462 c -3.2637,1.9091 -6.8975,2.7094 -12.07,2.7094 -7.8829,0 -13.4258,-1.8476 -16.4434,-5.4809 -2.0322,-2.4634 -2.7715,-4.8037 -2.9561,-9.4224 h 6.59 c 0.062,3.0791 0.6767,4.8037 2.4013,6.3433 2.2793,2.1553 5.8506,3.2021 10.6543,3.2021 7.0206,0 11.4551,-2.7094 11.4551,-7.082 0,-3.0176 -2.2177,-4.6807 -7.4521,-5.6045 l -7.8213,-1.293 a 44.8522,44.8522 0 0 1 -9.2988,-2.5249 9.8035,9.8035 0 0 1 -5.3584,-8.9917 c 0,-7.6977 6.59,-12.3164 17.4287,-12.3164 5.6045,0 10.0381,1.1084 12.9326,3.2637 3.0176,2.2788 4.249,4.8037 4.7422,9.7305 z"
         data-name="type &lt;CompoundPathItem&gt;"
         id="type_CompoundPathItem_47" />
      <path
         inkscape:connector-curvature="0"
         style="fill:#f23634"
         d="m 894.21,300.2212 h 23.586 c 7.2568,0 9.3574,0.3818 11.3154,1.9575 1.957,1.5278 3.0078,4.0581 3.0078,7.2095 a 9.2715,9.2715 0 0 1 -1.8145,6.063 c -1.0029,1.0986 -2.1005,1.5752 -4.44,2.1006 4.7744,1.3847 5.3,2.34 5.5869,10.5039 0.0948,2.4355 0.1426,2.8173 0.8594,4.0107 h -12.748 a 35.0971,35.0971 0 0 1 -0.3819,-4.2012 c -0.2392,-6.6367 -0.7168,-7.21 -5.873,-7.21 h -6.9229 v 11.4111 H 894.21 Z m 20.2442,13.7026 c 2.0048,0 2.8642,-0.1435 3.4375,-0.5254 a 3.1422,3.1422 0 0 0 1.2412,-2.6733 c 0,-2.292 -1.0987,-3.0557 -4.584,-3.0557 h -8.1641 v 6.2544 z"
         data-name="type &lt;CompoundPathItem&gt;"
         id="type_CompoundPathItem_48" />
      <path
         inkscape:connector-curvature="0"
         style="fill:#f23634"
         d="m 937.52,300.2212 h 36.0469 v 8.1167 h -23.8724 v 3.5332 h 19.7666 v 8.1162 h -19.7666 v 3.9627 h 25.3525 v 8.1162 H 937.52 Z"
         data-name="type &lt;CompoundPathItem&gt;"
         id="type_CompoundPathItem_49" />
      <path
         inkscape:connector-curvature="0"
         style="fill:#f23634"
         d="m 979.9211,300.2212 h 21.1035 c 8.2119,0 11.7929,0.9072 14.9912,3.8672 3.0556,2.7695 4.584,6.9707 4.584,12.4614 0,5.2041 -1.337,9.167 -3.9629,11.7451 -3.1514,3.0078 -6.1592,3.7715 -15.4219,3.7715 h -21.2939 z m 18.0478,23.729 c 4.01,0 5.5859,-0.2393 6.9229,-1.0986 1.7187,-1.0977 2.6738,-3.4375 2.6738,-6.6368 0,-3.1025 -0.9072,-5.49 -2.626,-6.6836 -1.3848,-1.0024 -2.4355,-1.1933 -7.1143,-1.1933 h -5.7294 V 323.95 Z"
         data-name="type &lt;CompoundPathItem&gt;"
         id="type_CompoundPathItem_50" />
      <path
         inkscape:connector-curvature="0"
         style="fill:#f23634"
         d="m 1025.6183,300.2212 h 12.1748 v 31.8452 h -12.1748 z"
         data-name="type &lt;CompoundPathItem&gt;"
         id="type_CompoundPathItem_51" />
      <path
         inkscape:connector-curvature="0"
         style="fill:#f23634"
         d="m 1059.3283,322.5176 c 1.0986,1.7666 2.6738,2.4345 5.6816,2.4345 2.8653,0 4.3447,-0.7158 4.3447,-2.0527 0,-0.9072 -0.4775,-1.3848 -1.4794,-1.6709 -1.0019,-0.2861 -1.6241,-0.3818 -9.0245,-1.0986 a 48.433,48.433 0 0 1 -10.0263,-1.957 c -3.9629,-1.2413 -6.1114,-4.0586 -6.1114,-7.9732 0,-7.2095 7.0186,-10.9814 20.3868,-10.9814 q 10.17,0 15.04,3.1513 c 2.626,1.6709 3.8193,3.4854 4.8223,7.2095 h -15.8994 c -0.7637,-2.0054 -2.5782,-2.9126 -5.7286,-2.9126 -2.5312,0 -4.1064,0.812 -4.1064,2.1011 0,1.5757 1.0508,1.8618 10.8857,2.8647 5.6338,0.5728 7.2569,0.9068 9.9786,1.91 3.8671,1.48 5.873,4.3437 5.873,8.3066 0,7.5918 -6.8281,11.2207 -21.1035,11.2207 -6.8272,0 -11.9844,-0.9072 -15.1826,-2.6738 -3.4375,-1.8623 -4.8223,-3.915 -5.252,-7.8779 z"
         data-name="type &lt;CompoundPathItem&gt;"
         id="type_CompoundPathItem_52" />
      <path
         inkscape:connector-curvature="0"
         style="fill:#f23634"
         d="m 1098.1017,308.3379 h -12.1269 v -8.1167 h 36.5722 v 8.1167 h -12.2705 v 23.7285 h -12.1748 z"
         data-name="type &lt;CompoundPathItem&gt;"
         id="type_CompoundPathItem_53" />
      <path
         inkscape:connector-curvature="0"
         style="fill:#f23634"
         d="m 1126.133,300.2212 h 23.5859 c 7.2568,0 9.3574,0.3818 11.3154,1.9575 1.9571,1.5278 3.0078,4.0581 3.0078,7.2095 a 9.2715,9.2715 0 0 1 -1.8144,6.063 c -1.002,1.0986 -2.1006,1.5752 -4.44,2.1006 4.7744,1.3847 5.3,2.34 5.5869,10.5039 0.095,2.4355 0.1426,2.8173 0.8594,4.0107 h -12.7481 a 35.1033,35.1033 0 0 1 -0.3818,-4.2012 c -0.2393,-6.6367 -0.7168,-7.21 -5.8731,-7.21 h -6.9228 v 11.4111 h -12.1752 z m 20.2441,13.7026 c 2.0049,0 2.8643,-0.1435 3.4375,-0.5254 a 3.1419,3.1419 0 0 0 1.2412,-2.6733 c 0,-2.292 -1.0986,-3.0557 -4.584,-3.0557 h -8.164 v 6.2544 z"
         data-name="type &lt;CompoundPathItem&gt;"
         id="type_CompoundPathItem_54" />
      <path
         inkscape:connector-curvature="0"
         style="fill:#f23634"
         d="m 1169.4894,300.2212 h 12.1748 v 31.8452 h -12.1748 z"
         data-name="type &lt;CompoundPathItem&gt;"
         id="type_CompoundPathItem_55" />
      <path
         inkscape:connector-curvature="0"
         style="fill:#f23634"
         d="m 1230.4621,320.1777 c -0.4776,4.6319 -1.958,7.1621 -5.5391,9.4063 -4.01,2.53 -8.498,3.4853 -16.4238,3.4853 -7.7822,0 -12.3662,-1.1943 -16.1377,-4.2021 -3.7715,-2.96 -5.6817,-7.3526 -5.6817,-12.8906 0,-5.49 1.9571,-9.8828 5.5381,-12.5088 4.0108,-2.96 9.0713,-4.25 16.5674,-4.25 8.6426,0 14.4668,1.7192 18.2393,5.2519 1.957,1.91 2.96,4.1538 3.4375,7.9258 h -13.9893 c -1.0029,-3.6763 -3.1035,-5.061 -7.64,-5.061 -5.73,0 -8.7373,2.9126 -8.7373,8.4511 0,5.8243 3.1992,9.166 8.7373,9.166 a 8.8438,8.8438 0 0 0 5.5859,-1.5751 8.5109,8.5109 0 0 0 2.0537,-3.1993 z"
         data-name="type &lt;CompoundPathItem&gt;"
         id="type_CompoundPathItem_56" />
      <path
         inkscape:connector-curvature="0"
         style="fill:#f23634"
         d="m 1244.7423,308.3379 h -12.1269 v -8.1167 h 36.5723 v 8.1167 h -12.2706 v 23.7285 h -12.1748 z"
         data-name="type &lt;CompoundPathItem&gt;"
         id="type_CompoundPathItem_57" />
      <path
         inkscape:connector-curvature="0"
         style="fill:#f23634"
         d="m 1272.8214,300.2212 h 12.1748 v 31.8452 h -12.1748 z"
         data-name="type &lt;CompoundPathItem&gt;"
         id="type_CompoundPathItem_58" />
      <path
         inkscape:connector-curvature="0"
         style="fill:#f23634"
         d="m 1291.3488,300.2212 h 13.75 l 9.9795,12.08 c 2.3867,3.0556 2.626,3.4375 4.7744,7.8769 h 0.3818 a 27.8237,27.8237 0 0 1 -1.624,-9.7871 v -10.1698 h 12.1758 v 31.8452 h -13.3692 l -10.5039,-12.4609 a 27.9993,27.9993 0 0 1 -4.44,-7.7344 h -0.3818 a 22.9413,22.9413 0 0 1 1.4326,8.7842 v 11.4111 h -12.1748 z"
         data-name="type &lt;CompoundPathItem&gt;"
         id="type_CompoundPathItem_59" />
      <path
         inkscape:connector-curvature="0"
         style="fill:#f23634"
         d="m 1379.0607,331.9707 h -5.252 l -1.623,-3.4375 a 11.5513,11.5513 0 0 1 -4.8223,3.0078 32.72,32.72 0 0 1 -10.5039,1.5283 c -13.5117,0 -21.0556,-6.0166 -21.0556,-16.8066 0,-5.49 2.1963,-10.2647 6.0156,-12.9858 3.7246,-2.6739 9.1191,-4.0586 15.66,-4.0586 6.876,0 12.7481,1.48 16.377,4.1064 3.1982,2.2915 4.6309,4.5357 5.2041,8.1641 h -14.4668 c -1.0508,-2.8169 -3.3418,-4.1538 -6.9707,-4.1538 -5.252,0 -8.4033,3.1992 -8.4033,8.5937 0,5.8252 3.4375,9.0713 9.6924,9.0713 4.1064,0 6.3974,-1.1934 7.3047,-3.7236 h -5.3946 v -6.9229 h 18.2383 z"
         data-name="type &lt;CompoundPathItem&gt;"
         id="type_CompoundPathItem_60" />
      <path
         inkscape:connector-curvature="0"
         style="fill:#7f202e"
         d="m 925.96,370.5039 c -2.1006,8.5469 -7.1611,12.5566 -15.7558,12.5566 -10.1221,0 -16.6631,-6.541 -16.6631,-16.5673 a 17.8657,17.8657 0 0 1 3.6289,-11.1241 c 2.9121,-3.6289 7.4482,-5.4912 13.3681,-5.4912 5.3,0 9.55,1.72 12.4141,5.0616 a 10.8835,10.8835 0 0 1 2.6738,6.4931 h -3.247 c -1.2413,-5.7295 -5.252,-8.7373 -11.6973,-8.7373 -5.4424,0 -9.5967,2.0049 -11.8408,5.7774 a 15.5973,15.5973 0 0 0 -2.0528,7.9736 c 0,8.4023 5.2041,13.7978 13.2735,13.7978 4.6308,0 8.4023,-1.7666 10.5508,-4.9658 a 11.61,11.61 0 0 0 1.91,-4.7744 z"
         data-name="type &lt;CompoundPathItem&gt;"
         id="type_CompoundPathItem_61" />
      <path
         inkscape:connector-curvature="0"
         style="fill:#7f202e"
         d="m 982.592,366.7324 a 16.9474,16.9474 0 0 1 -5.6338,12.6045 17.44,17.44 0 0 1 -11.4112,3.7236 c -5.92,0 -10.7422,-2.1484 -13.7021,-6.0634 a 18.0167,18.0167 0 0 1 -3.3906,-10.6465 c 0,-9.836 6.9707,-16.4727 17.332,-16.4727 9.9785,0 16.8057,6.8282 16.8057,16.8545 z m -30.8428,-0.334 c 0,8.3555 5.49,13.8457 13.8457,13.8457 8.164,0 13.7031,-5.538 13.7031,-13.7031 0,-8.5937 -5.2519,-13.8457 -13.8467,-13.8457 -8.3076,0 -13.7021,5.3955 -13.7021,13.7031 z"
         data-name="type &lt;CompoundPathItem&gt;"
         id="type_CompoundPathItem_62" />
      <path
         inkscape:connector-curvature="0"
         style="fill:#7f202e"
         d="m 1041.3722,382.3926 v -23.3477 c 0,-1.5752 0.048,-2.1953 0.2871,-6.6836 a 51.8093,51.8093 0 0 1 -2.2441,5.4424 l -11.793,24.5889 h -3.7236 L 1012.965,359.81 c -1.1465,-2.3877 -1.8145,-3.9151 -3.1514,-7.3057 0.2862,3.5811 0.3819,5.3477 0.3819,7.8311 v 22.0576 h -3.1993 v -31.8461 h 4.8223 l 12.08,24.875 a 42.4008,42.4008 0 0 1 1.957,4.6308 27.6883,27.6883 0 0 1 1.5752,-4.0576 l 12.2227,-25.4482 h 4.87 v 31.8457 z"
         data-name="type &lt;CompoundPathItem&gt;"
         id="type_CompoundPathItem_63" />
      <path
         inkscape:connector-curvature="0"
         style="fill:#7f202e"
         d="m 1104.6418,382.3926 v -23.3477 c 0,-1.5752 0.048,-2.1953 0.2871,-6.6836 a 51.8287,51.8287 0 0 1 -2.2442,5.4424 l -11.7929,24.5889 h -3.7237 l -10.9336,-22.583 c -1.1465,-2.3877 -1.8144,-3.9151 -3.1513,-7.3057 0.2861,3.5811 0.3818,5.3477 0.3818,7.8311 v 22.0576 h -3.1992 v -31.8457 h 4.8222 l 12.08,24.875 a 42.4006,42.4006 0 0 1 1.9571,4.6308 27.68,27.68 0 0 1 1.5751,-4.0576 l 12.2227,-25.4482 h 4.87 v 31.8457 z"
         data-name="type &lt;CompoundPathItem&gt;"
         id="type_CompoundPathItem_64" />
      <path
         inkscape:connector-curvature="0"
         style="fill:#7f202e"
         d="m 1133.5353,350.5469 h 3.2949 v 31.8457 h -3.2949 z"
         data-name="type &lt;CompoundPathItem&gt;"
         id="type_CompoundPathItem_65" />
      <path
         inkscape:connector-curvature="0"
         style="fill:#7f202e"
         d="m 1183.7668,359.5225 c -0.335,-4.4873 -3.6768,-6.9229 -9.4063,-6.9229 -5.6338,0 -9.2148,2.4356 -9.2148,6.2549 a 4.1781,4.1781 0 0 0 2.34,3.9629 17.81,17.81 0 0 0 4.6309,1.2412 l 5.3955,0.9072 c 4.3926,0.7637 6.3974,1.4805 7.9258,2.7217 a 7.3466,7.3466 0 0 1 2.5781,5.92 c 0,5.9209 -4.918,9.5488 -13.0821,9.5488 -5.873,0 -10.2177,-1.8613 -12.414,-5.3 -1.002,-1.5752 -1.3838,-3.0078 -1.5752,-5.8242 h 3.3418 a 6.951,6.951 0 0 0 1.1943,4.2969 c 1.8614,2.7217 4.8692,4.0107 9.501,4.0107 5.92,0 9.74,-2.6259 9.74,-6.6845 0,-3.0557 -1.958,-4.4883 -7.2578,-5.3955 l -4.7265,-0.8116 c -4.2491,-0.7158 -5.92,-1.2412 -7.4961,-2.1962 a 6.6848,6.6848 0 0 1 -3.3418,-6.2071 c 0,-5.6338 4.9648,-9.2627 12.6045,-9.2627 4.44,0 7.83,1.2422 10.0263,3.6289 a 9.169,9.169 0 0 1 2.3867,6.1114 z"
         data-name="type &lt;CompoundPathItem&gt;"
         id="type_CompoundPathItem_66" />
      <path
         inkscape:connector-curvature="0"
         style="fill:#7f202e"
         d="m 1233.6173,359.5225 c -0.3349,-4.4873 -3.6767,-6.9229 -9.4062,-6.9229 -5.6338,0 -9.2149,2.4356 -9.2149,6.2549 a 4.1781,4.1781 0 0 0 2.34,3.9629 17.81,17.81 0 0 0 4.6309,1.2412 l 5.3955,0.9072 c 4.3925,0.7637 6.3974,1.4805 7.9257,2.7217 a 7.3466,7.3466 0 0 1 2.5782,5.92 c 0,5.9209 -4.918,9.5488 -13.0821,9.5488 -5.873,0 -10.2177,-1.8613 -12.414,-5.3 -1.002,-1.5752 -1.3838,-3.0078 -1.5752,-5.8242 h 3.3418 a 6.951,6.951 0 0 0 1.1943,4.2969 c 1.8613,2.7217 4.8691,4.0107 9.501,4.0107 5.92,0 9.7392,-2.6259 9.7392,-6.6845 0,-3.0557 -1.957,-4.4883 -7.2568,-5.3955 l -4.7266,-0.8116 c -4.249,-0.7158 -5.92,-1.2412 -7.496,-2.1962 a 6.6848,6.6848 0 0 1 -3.3418,-6.2071 c 0,-5.6338 4.9648,-9.2627 12.6044,-9.2627 4.4405,0 7.83,1.2422 10.0264,3.6289 a 9.169,9.169 0 0 1 2.3867,6.1114 z"
         data-name="type &lt;CompoundPathItem&gt;"
         id="type_CompoundPathItem_67" />
      <path
         inkscape:connector-curvature="0"
         style="fill:#7f202e"
         d="m 1262.03,350.5469 h 3.2949 v 31.8457 h -3.2949 z"
         data-name="type &lt;CompoundPathItem&gt;"
         id="type_CompoundPathItem_68" />
      <path
         inkscape:connector-curvature="0"
         style="fill:#7f202e"
         d="m 1323.8634,366.7324 a 16.9474,16.9474 0 0 1 -5.6338,12.6045 17.44,17.44 0 0 1 -11.4111,3.7236 c -5.92,0 -10.7422,-2.1484 -13.7021,-6.0634 a 18.0167,18.0167 0 0 1 -3.3907,-10.6465 c 0,-9.836 6.9707,-16.4727 17.3321,-16.4727 9.9785,0 16.8056,6.8282 16.8056,16.8545 z m -30.8427,-0.334 c 0,8.3555 5.49,13.8457 13.8457,13.8457 8.164,0 13.7031,-5.538 13.7031,-13.7031 0,-8.5937 -5.252,-13.8457 -13.8467,-13.8457 -8.3076,0 -13.7021,5.3955 -13.7021,13.7031 z"
         data-name="type &lt;CompoundPathItem&gt;"
         id="type_CompoundPathItem_69" />
      <path
         inkscape:connector-curvature="0"
         style="fill:#7f202e"
         d="m 1374.05,382.3926 -18.2383,-22.6787 a 47.11,47.11 0 0 1 -4.6309,-6.4932 68.9973,68.9973 0 0 1 0.3819,7.0186 v 22.1533 h -3.295 v -31.8457 h 4.1065 l 18.2861,22.7265 a 40.7868,40.7868 0 0 1 4.6309,6.5889 c -0.2862,-3.0078 -0.3819,-4.0107 -0.3819,-5.1562 v -24.1592 h 3.295 v 31.8457 z"
         data-name="type &lt;CompoundPathItem&gt;"
         id="type_CompoundPathItem_70" />
    </g>
    <g
       data-name="logoMark"
       id="logoMark-2">
      <polygon
         clip-path="url(#clipPath280)"
         style="fill:#7f202e"
         points="806.58,348.681 803.413,347.53 798.52,348.969 795.929,346.954 789.884,346.954 789.596,342.924 784.127,340.621 782.06,341.506 788.216,382.393 820.536,382.393 815.996,349.104 812.624,348.105 811.761,346.378 "
         data-name="logoMark &lt;PathItem&gt;"
         id="logoMark_PathItem_21" />
      <polygon
         clip-path="url(#clipPath276)"
         style="fill:#7f202e"
         points="866.89,291.349 879.007,286.523 879.007,257.433 862.539,263.75 "
         data-name="logoMark &lt;PathItem&gt;"
         id="logoMark_PathItem_22" />
      <polygon
         clip-path="url(#clipPath272)"
         style="fill:#7f202e"
         points="816.655,285.928 821.836,285.353 829.033,277.869 835.06,274.29 809.167,284.222 809.846,289.207 "
         data-name="logoMark &lt;PathItem&gt;"
         id="logoMark_PathItem_23" />
      <polygon
         clip-path="url(#clipPath268)"
         style="fill:#7f202e"
         points="773.169,295.887 765.348,243.943 737.03,255.805 737.03,285.246 742.683,307.581 "
         data-name="logoMark &lt;PathItem&gt;"
         id="logoMark_PathItem_24" />
      <polygon
         clip-path="url(#clipPath264)"
         style="fill:#7f202e"
         points="860.311,262.462 856.835,240.416 803.192,240.416 808.889,282.186 "
         data-name="logoMark &lt;PathItem&gt;"
         id="logoMark_PathItem_25" />
      <polygon
         clip-path="url(#clipPath260)"
         style="fill:#7f202e"
         points="805.826,285.503 807.664,288.008 807.248,284.958 "
         data-name="logoMark &lt;PathItem&gt;"
         id="logoMark_PathItem_26" />
      <polygon
         clip-path="url(#clipPath256)"
         style="fill:#7f202e"
         points="806.97,282.922 801.173,240.416 773.768,240.416 767.251,243.146 773.77,286.443 795.065,284.201 799.198,285.903 "
         data-name="logoMark &lt;PathItem&gt;"
         id="logoMark_PathItem_27" />
      <polygon
         clip-path="url(#clipPath252)"
         style="fill:#7f202e"
         points="864.985,292.107 860.629,264.482 838.357,273.025 842.849,297.731 841.963,301.276 "
         data-name="logoMark &lt;PathItem&gt;"
         id="logoMark_PathItem_28" />
      <polygon
         clip-path="url(#clipPath248)"
         style="fill:#7f202e"
         points="879.007,361.493 878.013,361.889 879.007,368.193 "
         data-name="logoMark &lt;PathItem&gt;"
         id="logoMark_PathItem_29" />
      <polygon
         clip-path="url(#clipPath244)"
         style="fill:#7f202e"
         points="766.84,240.416 766.944,241.105 768.591,240.416 "
         data-name="logoMark &lt;PathItem&gt;"
         id="logoMark_PathItem_30" />
      <path
         inkscape:connector-curvature="0"
         clip-path="url(#clipPath240)"
         style="fill:#f23634"
         d="m 876.1082,362.6475 -49.5815,19.7451 h 41.5592 a 10.8958,10.8958 0 0 0 10.0793,-6.7 z"
         data-name="logoMark &lt;PathItem&gt;"
         id="logoMark_PathItem_31" />
      <path
         inkscape:connector-curvature="0"
         clip-path="url(#clipPath236)"
         style="fill:#f23634"
         d="m 765.0407,241.9028 -0.2239,-1.487 H 747.9516 A 10.8974,10.8974 0 0 0 737.03,251.3371 v 2.2991 z"
         data-name="logoMark &lt;PathItem&gt;"
         id="logoMark_PathItem_32" />
      <path
         inkscape:connector-curvature="0"
         clip-path="url(#clipPath232)"
         style="fill:#f23634"
         d="m 862.22,261.73 16.787,-6.4389 v -3.954 a 10.8975,10.8975 0 0 0 -10.9213,-10.9213 h -9.2266 z"
         data-name="logoMark &lt;PathItem&gt;"
         id="logoMark_PathItem_33" />
      <polygon
         clip-path="url(#clipPath228)"
         style="fill:#7f202e"
         points="740.802,308.302 737.03,293.399 737.03,309.749 "
         data-name="logoMark &lt;PathItem&gt;"
         id="logoMark_PathItem_34" />
      <path
         inkscape:connector-curvature="0"
         clip-path="url(#clipPath224)"
         style="fill:#7f202e"
         d="m 759.5532,382.3926 -10.6094,-41.92 -11.9138,4.744 v 26.2547 a 10.8974,10.8974 0 0 0 10.9212,10.9213 z"
         data-name="logoMark &lt;PathItem&gt;"
         id="logoMark_PathItem_35" />
      <polygon
         clip-path="url(#clipPath220)"
         style="fill:#7f202e"
         points="877.694,359.864 879.007,359.341 879.007,288.676 867.21,293.374 "
         data-name="logoMark &lt;PathItem&gt;"
         id="logoMark_PathItem_36" />
      <polygon
         clip-path="url(#clipPath216)"
         style="fill:#7f202e"
         points="842.561,308.382 841.41,319.896 835.653,327.092 831.911,327.956 827.593,333.425 826.729,337.742 825.002,337.742 820.396,350.408 818.1,349.728 822.481,381.851 875.789,360.622 865.305,294.133 841.86,303.47 "
         data-name="logoMark &lt;PathItem&gt;"
         id="logoMark_PathItem_37" />
      <polygon
         clip-path="url(#clipPath212)"
         style="fill:#f23634"
         points="737.03,343.064 748.449,338.517 741.296,310.255 737.03,311.891 "
         data-name="logoMark &lt;PathItem&gt;"
         id="logoMark_PathItem_38" />
      <polygon
         clip-path="url(#clipPath208)"
         style="fill:#7f202e"
         points="750.323,337.77 777.826,326.818 773.474,297.912 743.177,309.533 "
         data-name="logoMark &lt;PathItem&gt;"
         id="logoMark_PathItem_39" />
      <polygon
         clip-path="url(#clipPath204)"
         style="fill:#7f202e"
         points="780.097,342.348 779.664,339.03 778.131,328.849 750.818,339.726 761.617,382.393 786.193,382.393 780.16,342.321 "
         data-name="logoMark &lt;PathItem&gt;"
         id="logoMark_PathItem_40" />
    </g>
  </g>
</svg>
